<svg width="100" height="100" viewBox="0 0 100 100" xmlns="http://www.w3.org/2000/svg" xmlns:xlink="http://www.w3.org/1999/xlink" xmlns:sketch="http://www.bohemiancoding.com/sketch/ns"><title>icon-strategy</title><desc>Created with Sketch.</desc><defs><path id="a" d="M13.457 1.953c0 .43.277.824.742 1.145v1.683c-2.179 2.231-5.98 6.703-6.828 11.442-.156.597-.242 1.218-.242 1.859 0 2.352 1.113 4.477 2.918 6.031v.856c-.727.289-1.145.625-1.145.984 0 .5.813.957 2.149 1.301v1.844c-1.571.496-2.539 1.179-2.539 1.929 0 .594.601 1.141 1.625 1.59-3.25.496-5.379 1.321-5.379 2.254 0 1.141 3.172 2.117 7.691 2.535v9.828l-1.238 6.797c-2.477.469-4.082 1.215-4.082 2.055v2.34c-.086.969-.313 2.058-.859 2.648-.977 1.051-3.665 3.067-4.497 4.555-.179.223-.273.449-.273.683 0 .399.27.782.766 1.141v.004s.25.102-.274.656c-.523.555-1.222 1.254-1.222 2.543 0 2.399 7.418 4.344 16.566 4.344 9.152 0 16.566-1.945 16.566-4.344 0-1.289-.699-1.988-1.222-2.543-.524-.554-.274-.656-.274-.656v-.004c.496-.359.77-.742.77-1.141 0-.234-.098-.46-.274-.683-.832-1.488-3.519-3.504-4.496-4.555-.547-.59-.773-1.679-.859-2.648v-2.34c0-.84-1.606-1.586-4.082-2.055l-1.242-6.797v-9.832c4.519-.418 7.691-1.394 7.691-2.535 0-.933-2.129-1.758-5.379-2.254 1.024-.449 1.629-1 1.629-1.59 0-.75-.969-1.433-2.543-1.929v-1.844c1.336-.344 2.149-.801 2.149-1.301 0-.359-.418-.691-1.145-.984v-.856c1.805-1.554 2.918-3.683 2.918-6.031 0-.637-.086-1.258-.242-1.859-.551-3.074-2.34-6.031-4.129-8.344l-2.004 5.898s-1.879-.394-1.922-.656c-.035-.211 1.809-5.015 2.539-6.918-.473-.539-.922-1.019-1.316-1.422v-1.679c.465-.321.742-.715.742-1.145.019-1.078-1.719-1.953-3.867-1.953-2.145 0-3.887.875-3.887 1.953z"/></defs><g sketch:type="MSLayerGroup" fill="none"><path d="M45.457 13.953c0 .43.277.824.742 1.145v1.683c-2.179 2.231-5.98 6.703-6.828 11.442-.156.597-.242 1.218-.242 1.859 0 2.352 1.113 4.477 2.918 6.031v.856c-.727.289-1.145.625-1.145.984 0 .5.813.957 2.149 1.301v1.844c-1.571.496-2.539 1.179-2.539 1.929 0 .594.601 1.141 1.625 1.59-3.25.496-5.379 1.321-5.379 2.254 0 1.141 3.172 2.117 7.691 2.535v9.828l-1.238 6.797c-2.477.469-4.082 1.215-4.082 2.055v2.34c-.086.969-.313 2.058-.859 2.648-.977 1.051-3.665 3.067-4.497 4.555-.179.223-.273.449-.273.683 0 .399.27.782.766 1.141v.004s.25.102-.274.656c-.523.555-1.222 1.254-1.222 2.543 0 2.399 7.418 4.344 16.566 4.344 9.152 0 16.566-1.945 16.566-4.344 0-1.289-.699-1.988-1.222-2.543-.524-.554-.274-.656-.274-.656v-.004c.496-.359.77-.742.77-1.141 0-.234-.098-.46-.274-.683-.832-1.488-3.519-3.504-4.496-4.555-.547-.59-.773-1.679-.859-2.648v-2.34c0-.84-1.606-1.586-4.082-2.055l-1.242-6.797v-9.832c4.519-.418 7.691-1.394 7.691-2.535 0-.933-2.129-1.758-5.379-2.254 1.024-.449 1.629-1 1.629-1.59 0-.75-.969-1.433-2.543-1.929v-1.844c1.336-.344 2.149-.801 2.149-1.301 0-.359-.418-.691-1.145-.984v-.856c1.805-1.554 2.918-3.683 2.918-6.031 0-.637-.086-1.258-.242-1.859-.551-3.074-2.34-6.031-4.129-8.344l-2.004 5.898s-1.879-.394-1.922-.656c-.035-.211 1.809-5.015 2.539-6.918-.473-.539-.922-1.019-1.316-1.422v-1.679c.465-.321.742-.715.742-1.145.019-1.078-1.719-1.953-3.867-1.953-2.145 0-3.887.875-3.887 1.953" fill="#fff" sketch:type="MSShapeGroup"/><g transform="translate(32 12)"><mask id="b" sketch:name="Clip 3"><use xlink:href="#a"/></mask><path d="M.777 0h33.133v75h-33.133v-75z" fill="#fff" sketch:type="MSShapeGroup" mask="url(#b)"/></g></g></svg>