<?xml version="1.0" encoding="utf-8"?>
<!-- Generator: Adobe Illustrator 19.2.0, SVG Export Plug-In . SVG Version: 6.00 Build 0)  -->
<!DOCTYPE svg PUBLIC "-//W3C//DTD SVG 1.1//EN" "http://www.w3.org/Graphics/SVG/1.1/DTD/svg11.dtd">
<svg version="1.1" id="Layer_1" xmlns="http://www.w3.org/2000/svg" xmlns:xlink="http://www.w3.org/1999/xlink" x="0px" y="0px"
	 viewBox="0 0 100 100" style="enable-background:new 0 0 100 100;" xml:space="preserve">
<style type="text/css">
	.st0{fill:#FFFFFF;}
</style>
<path class="st0" d="M50,3.2C24.2,3.2,3.2,24.2,3.2,50c0,25.8,21,46.8,46.8,46.8s46.8-21,46.8-46.8C96.8,24.2,75.8,3.2,50,3.2z
	 M50,86.9c-20.4,0-36.9-16.5-36.9-36.9c0-20.4,16.5-36.9,36.9-36.9c20.4,0,36.9,16.5,36.9,36.9C86.9,70.4,70.4,86.9,50,86.9z"/>
<path class="st0" d="M40.6,34.6c-0.8-0.8-2.9-0.8-2.9,0v33.8c0,0.8,2.1,0.8,3,0l27.8-15.4c0.8-0.8,0.8-2.2,0-3L40.6,34.6z"/>
</svg>
