<svg width="100" height="100" viewBox="0 0 100 100" xmlns="http://www.w3.org/2000/svg" xmlns:sketch="http://www.bohemiancoding.com/sketch/ns"><title>icon-realtime</title><desc>Created with Sketch.</desc><g sketch:type="MSLayerGroup" fill="#fff"><path d="M47.5 17c-18.502 0-33.5 14.998-33.5 33.5 0 18.502 14.998 33.5 33.5 33.5 18.502 0 33.5-14.998 33.5-33.5 0-18.502-14.998-33.5-33.5-33.5zm0 60.3c-14.799 0-26.8-11.997-26.8-26.8 0-14.799 12.001-26.8 26.8-26.8 14.803 0 26.8 12.001 26.8 26.8 0 14.803-11.997 26.8-26.8 26.8z" sketch:type="MSShapeGroup"/><path d="M50.18 50.5c0 2.219-1.501 4.02-3.35 4.02-1.849 0-3.35-1.801-3.35-4.02v-20.1c0-2.219 1.501-4.02 3.35-4.02 1.849 0 3.35 1.801 3.35 4.02v20.1z" sketch:type="MSShapeGroup"/><path d="M45.553 54.628c-1.884-1.176-2.568-3.479-1.528-5.147 1.04-1.668 3.41-2.069 5.294-.893l17.061 10.63c1.884 1.176 2.568 3.479 1.528 5.147-1.04 1.668-3.41 2.069-5.294.893l-17.061-10.63z" sketch:type="MSShapeGroup"/></g></svg>