<svg width="100" height="100" viewBox="0 0 100 100" xmlns="http://www.w3.org/2000/svg" xmlns:sketch="http://www.bohemiancoding.com/sketch/ns"><title>icon-rpg</title><desc>Created with Sketch.</desc><g sketch:type="MSLayerGroup" fill="#fff"><path d="M67.095 63.158l10.684 10.684-3.246 3.246-10.684-10.684 3.246-3.246z" sketch:type="MSShapeGroup"/><path d="M78.109 74.146l-3.276 3.276c-.683.683-.604 1.87.175 2.654.784.779 1.971.859 2.655.175l3.275-3.275c.684-.684.604-1.871-.175-2.655-.784-.779-1.971-.858-2.654-.175z" sketch:type="MSShapeGroup"/><path d="M59.579 69.787l10.896-10.896.251.251c.587.588 1.433.683 1.895.221.463-.463.363-1.313-.221-1.895l-2.909-2.913c-.587-.583-1.433-.684-1.895-.221-.463.463-.363 1.309.221 1.895l.251.251-10.896 10.899-.251-.25c-.583-.588-1.433-.684-1.895-.221-.463.463-.363 1.313.221 1.895l2.909 2.909c.582.583 1.433.684 1.895.221.462-.463.363-1.312-.221-1.895l-.251-.251z" sketch:type="MSShapeGroup"/><path d="M24.983 77.096l-3.246-3.246 10.684-10.684 3.245 3.246-10.683 10.684z" sketch:type="MSShapeGroup"/><path d="M21.412 74.146c-.683-.683-1.871-.604-2.654.175-.78.78-.859 1.971-.175 2.655l3.275 3.275c.684.684 1.871.604 2.654-.175.78-.784.859-1.971.176-2.654l-3.276-3.276z" sketch:type="MSShapeGroup"/><path d="M42.599 67.129l-.25.25-10.896-10.895.251-.251c.583-.588.683-1.433.221-1.895-.463-.463-1.313-.367-1.897.221l-2.908 2.912c-.583.583-.684 1.434-.221 1.897.462.462 1.312.363 1.895-.221l.25-.251 10.896 10.896-.25.251c-.583.587-.684 1.433-.221 1.895.462.463 1.312.363 1.895-.221l2.909-2.909c.588-.587.683-1.433.221-1.895-.463-.47-1.313-.371-1.897.217z" sketch:type="MSShapeGroup"/><path d="M65.471 58.346l-9.271-9.276 21.451-21.45 3.758-10.33-10.199 3.884-21.451 21.454-21.483-21.483-10.205-3.892 3.763 10.334 21.483 21.483-9.27 9.276 6.442 6.442 9.27-9.271 9.271 9.271 6.442-6.442zm-37.541-30.238c-.334-.333-.409-.796-.172-1.034.238-.237.701-.162 1.034.171l18.179 18.179-.866.863-18.175-18.179zm21.828 21.829l-8.287 8.287c-.334.334-.796.409-1.034.172-.238-.238-.162-.701.171-1.034l30.087-30.087c.334-.334.796-.409 1.034-.171.238.237.162.7-.171 1.033l-21.801 21.801zm8.284 8.284l-5.495-5.497.862-.862 5.497 5.495c.333.333.407.796.171 1.034-.242.237-.7.162-1.034-.171z" sketch:type="MSShapeGroup"/></g></svg>