<?xml version="1.0" encoding="UTF-8" standalone="no"?>
<svg width="100px" height="100px" viewBox="0 0 100 100" version="1.1" xmlns="http://www.w3.org/2000/svg" xmlns:xlink="http://www.w3.org/1999/xlink" xmlns:sketch="http://www.bohemiancoding.com/sketch/ns">
    <!-- Generator: Sketch 3.5.1 (25234) - http://www.bohemiancoding.com/sketch -->
    <title>icon-realtime</title>
    <desc>Created with Sketch.</desc>
    <defs></defs>
    <g id="Page-1" stroke="none" stroke-width="1" fill="none" fill-rule="evenodd" sketch:type="MSPage">
        <g id="icon-realtime" sketch:type="MSArtboardGroup" fill="#000000">
            <g id="Page-1" sketch:type="MSLayerGroup" transform="translate(14.000000, 17.000000)">
                <path d="M33.5,0 C14.9981733,0 0,14.9981733 0,33.5 C0,52.0018267 14.9981733,67 33.5,67 C52.0018267,67 67,52.0018267 67,33.5 C67,14.9981733 52.0018267,0 33.5,0 L33.5,0 Z M33.5,60.3 C18.70104,60.3 6.7,48.3025333 6.7,33.5 C6.7,18.70104 18.70104,6.7 33.5,6.7 C48.3025333,6.7 60.3,18.70104 60.3,33.5 C60.3,48.3025333 48.3025333,60.3 33.5,60.3 L33.5,60.3 Z" id="Fill-1" sketch:type="MSShapeGroup"></path>
                <path d="M36.18,33.5 C36.18,35.71904 34.6792,37.52 32.83,37.52 C30.9808,37.52 29.48,35.71904 29.48,33.5 L29.48,13.4 C29.48,11.18096 30.9808,9.38 32.83,9.38 C34.6792,9.38 36.18,11.18096 36.18,13.4 L36.18,33.5 Z" id="Fill-2" sketch:type="MSShapeGroup"></path>
                <path d="M31.5525333,37.6280933 C29.6684933,36.4524667 28.9842,34.1494533 30.02404,32.4807067 C31.06388,30.8128533 33.4338933,30.4117467 35.3179333,31.5873733 L52.3788133,42.2171467 C54.2628533,43.3927733 54.9471467,45.6957867 53.9073067,47.3645333 C52.8674667,49.0323867 50.4974533,49.4334933 48.6134133,48.2578667 L31.5525333,37.6280933 Z" id="Fill-3" sketch:type="MSShapeGroup"></path>
            </g>
        </g>
    </g>
</svg>