<svg width="100" height="100" viewBox="0 0 100 100" xmlns="http://www.w3.org/2000/svg" xmlns:sketch="http://www.bohemiancoding.com/sketch/ns"><title>icon-shooter</title><desc>Created with Sketch.</desc><path d="M87.926 69.25c-.227-1.199-1.051-3.523-2.324-6-1.2-2.477-3.375-5.324-5.551-8.551-1.649-2.398-2.926-7.5-3.375-9.226-.449-1.727-.824-4.875-.524-6.149.301-1.351 2.399-2.625 3.149-2.699.75-.074 2.324 0 2.551-.375.226-.301.3-1.273.226-1.5-.074-.375-.375-.824-.375-.824v-6.524s0-1.051-.976-1.051h-2.176s-.375-1.351-.528-1.351h-1.125c-.148 0-.449 1.351-.449 1.351h-22.199c-.227 0-.301.301-.301.301h-10.347s-.075-.301-.301-.301h-25.875s-.227-.75-.524-.75c-.601 0-.976.75-.976.75h-1.5c-.899 0-.824 1.876-.824 1.876s-.602.148-.602.601v4.125c.074.375.602.602.602.602v3.523c0 1.199.3 2.852.898 3.074.75.301 3.676.899 5.477.899h1.8l.075-.227h1.351s0 .227.074.227c2.399.148 9.524.449 14.102.676.301 0 1.426 1.05 1.5 1.273.074.227 0 5.023-.074 5.324-.149.449-.676 1.574-.75 1.875-.075.301 0 .824.523 1.199.301.227.75.45 1.426.45.601.074 12.449.3 13.351.226.899 0 2.399-1.199 3.227-1.199.75 0 2.023 0 2.324.602l2.102 4.199c.148.375-.676 1.574-.301 2.25.301.523 1.273.301 1.574.898.301.602 1.125 2.477 1.352 3.074.148.375-.524 1.727-.301 2.176.301.524 1.199.602 1.574 1.352.375.75 1.574 3.226 1.649 4.273.074.824-.227 2.324.074 3 .449.899.976 1.051.976 1.051s-.226 1.125-.148 1.5c.148.449.602.898 1.5.898h13.426c.375 0 1.125-1.351 1.273-1.574.149-.226.074-.523.074-.523s.977-.375 1.274-.45c.301-.148 1.949-1.124 2.324-1.8.524-.676.82-1.348.598-2.551zm-32.102-21.598c-.375.977-2.324 1.727-2.926 1.801-.449.074-7.726 0-9.148-.074-1.426-.074-2.398-1.352-2.699-2.25-.227-.602-.449-3.375.375-4.352.449-.523 1.648-1.648 3.301-1.648 1.875 0 5.476.523 5.476.523s.149.524.301 1.125c.148.602 0 1.5-.227 2.324-.226.825-1.05 1.575-2.023 2.176-.899.602-.977.977-.824 1.125.226.301.601.301.601.301s-.375.676.602.524c.523-.075 1.574-.676 2.324-1.2.523-.375.898-.824 1.125-1.05.074-.149.449-.676.977-1.2.074-.148.148-.226.226-.3.676-.75 1.426-1.426 1.875-1.352.074-.074.149-.074.149-.074s.449.449.675 1.125c.289.449.215 1.574-.16 2.476z" sketch:type="MSShapeGroup" fill="#fff"/></svg>