<svg width="100" height="100" viewBox="0 0 100 100" xmlns="http://www.w3.org/2000/svg" xmlns:sketch="http://www.bohemiancoding.com/sketch/ns"><title>icon-multiplayer</title><desc>Created with Sketch.</desc><g sketch:type="MSLayerGroup" fill="#fff"><path d="M54.766 78.402c-.205-1.737-.623-3.545-1.26-5.357-2.858-8.08-11.47-.58-14.616-10.439 2.959-2.092 5.365-5.745 6.761-9.887l.144.037c1.103.177 2.312-1.668 2.708-4.12.391-2.451-.181-4.585-1.284-4.763-.088-.014-.181-.014-.274 0-.085-1.789-.386-3.475-.879-5.021.255-.691.409-1.607.437-2.793.093-3.475-3.36-10.187-11.963-11.027-5.691-.556-11.35 2.705-11.447 6.184-.008.341.024.678.089 1.004-.187-.164-.392-.267-.615-.299-1.261-.169-2.592 1.985-3.02 5.17-.303 2.261-.112 4.718.479 6.015-.023.271-.037.548-.051.823-.176-.066-.349-.088-.525-.061-1.103.178-1.675 2.312-1.279 4.765.395 2.451 1.605 4.296 2.708 4.119.13-.019.251-.071.368-.145 1.297 3.913 3.494 7.398 6.211 9.56-3.033 10.481-11.846 2.662-14.741 10.854-.642 1.817-1.06 3.634-1.265 5.38h43.315z" sketch:type="MSShapeGroup"/><path d="M52.408 66.333c1.782.827 3.317 2.41 4.299 5.853.596 2.088 1.028 4.17 1.317 6.211h33.161c.038-2.573-.413-5.4-1.414-8.23-2.634-7.449-10.157-1.657-13.782-8.426 2.461-2.157 4.453-5.403 5.676-9.032l.144.037c1.103.177 2.313-1.668 2.709-4.119.391-2.452-.182-4.587-1.284-4.765h-.275c-.014-.331-.037-.662-.069-.985.139-1.078.13-2.414-.07-3.9-.07-.505-.158-1.013-.261-1.512-.325-1-.652-2.153-.791-3.396-.307-2.681.107-4.829.107-5.964l.074-.024.173-.304.335-.682c-.828.564-3.089.723-5.685.326-.247-.037-.488-.079-.727-.126-1.884-.575-4.197-.916-6.704-.916-6.31 0-10.237 1.943-11.428 4.82-.573 1.379-.922 2.489-1.089 3.382-.303.882-.544 1.929-.703 3.092-.237 1.779-.247 3.656-.051 5.141-.037.369-.061.742-.079 1.122-.177-.066-.354-.088-.526-.061-1.103.177-1.675 2.312-1.284 4.763.391 2.452 1.606 4.297 2.704 4.12.13-.019.25-.071.367-.145 1.191 3.595 3.146 6.828 5.56 9.004-2.526 4.876-7.03 3.409-10.404 4.712z" sketch:type="MSShapeGroup"/></g></svg>