<?xml version="1.0" encoding="UTF-8" standalone="no"?>
<svg width="100px" height="100px" viewBox="0 0 100 100" version="1.1" xmlns="http://www.w3.org/2000/svg" xmlns:xlink="http://www.w3.org/1999/xlink" xmlns:sketch="http://www.bohemiancoding.com/sketch/ns">
    <!-- Generator: Sketch 3.5.1 (25234) - http://www.bohemiancoding.com/sketch -->
    <title>icon-multiplayer</title>
    <desc>Created with Sketch.</desc>
    <defs></defs>
    <g id="Page-1" stroke="none" stroke-width="1" fill="none" fill-rule="evenodd" sketch:type="MSPage">
        <g id="icon-multiplayer" sketch:type="MSArtboardGroup" fill="#000000">
            <g id="Page-1" sketch:type="MSLayerGroup" transform="translate(11.000000, 24.000000)">
                <path d="M43.7662059,54.4021739 C43.5613235,52.6648913 43.1432206,50.8570652 42.5059412,49.0456522 C39.6483088,40.9654348 31.0361029,48.4657609 27.8902059,38.606413 C30.8490882,36.5140217 33.2552647,32.8613043 34.6513235,28.7195652 C34.6977794,28.7327174 34.749,28.7470652 34.7954559,28.7566304 C35.8984853,28.933587 37.1075294,27.0886957 37.503,24.636413 C37.8937059,22.1853261 37.3219412,20.051087 36.2189118,19.8729348 C36.1307647,19.858587 36.0378529,19.858587 35.9449412,19.8729348 C35.8603676,18.0842391 35.559,16.3983696 35.0658529,14.8523913 C35.3207647,14.1613043 35.4744265,13.2454348 35.5030147,12.0593478 C35.5959265,8.58478261 32.1427059,1.8723913 23.5400294,1.03184783 C17.8485882,0.475869565 12.1905,3.73641304 12.0928235,7.21576087 C12.0844853,7.55652174 12.1166471,7.89369565 12.1821618,8.2201087 C11.9951471,8.05630435 11.7902647,7.95347826 11.5675147,7.92119565 C10.3060588,7.7526087 8.97551471,9.90597826 8.54788235,13.0911957 C8.24532353,15.3521739 8.43591176,17.8092391 9.02673529,19.1065217 C9.00410294,19.3779348 8.98980882,19.6541304 8.97551471,19.9291304 C8.79922059,19.8633696 8.6265,19.8406522 8.45020588,19.8681522 C7.34717647,20.0463043 6.77541176,22.1805435 7.17088235,24.6328261 C7.56635294,27.083913 8.77539706,28.9288043 9.87842647,28.7518478 C10.0082647,28.7327174 10.1297647,28.6813043 10.2465,28.6071739 C11.5436912,32.5205435 13.7402206,36.0046739 16.4572941,38.1676087 C13.4245588,48.6486957 4.61104412,40.8291304 1.71648529,49.0217391 C1.07444118,50.8391304 0.656338235,52.6553261 0.451455882,54.4021739 L43.7662059,54.4021739 Z" id="Fill-1" sketch:type="MSShapeGroup"></path>
                <path d="M41.4076765,42.3332609 C43.1896765,43.1606522 44.7251029,44.7436957 45.7066324,48.1859783 C46.3022206,50.273587 46.7346176,52.356413 47.0240735,54.3973913 L80.1852353,54.3973913 C80.2233529,51.8243478 79.7718971,48.9978261 78.7713088,46.1677174 C76.1376176,38.7188043 68.6141471,44.5105435 64.9893971,37.7419565 C67.4503676,35.585 69.4420147,32.3388043 70.6653529,28.71 C70.7118088,28.7231522 70.7582647,28.7375 70.8094853,28.7470652 C71.9125147,28.9240217 73.12275,27.0791304 73.5182206,24.6280435 C73.9089265,22.1757609 73.3359706,20.0415217 72.2341324,19.8633696 C72.1447941,19.8502174 72.0518824,19.8502174 71.9589706,19.8633696 C71.9446765,19.5321739 71.9220441,19.2009783 71.8898824,18.8781522 C72.02925,17.7996739 72.0197206,16.4641304 71.8196029,14.9779348 C71.7493235,14.4733696 71.6611765,13.9652174 71.5587353,13.4654348 C71.2335441,12.4658696 70.9071618,11.3120652 70.7677941,10.0697826 C70.4604706,7.38913043 70.875,5.24054348 70.875,4.10586957 L70.9488529,4.08195652 C70.9917353,3.96956522 71.0703529,3.86673913 71.1215735,3.77826087 L71.4562941,3.09673913 C70.6284265,3.66108696 68.3675735,3.8201087 65.7708088,3.42315217 C65.5242353,3.38608696 65.2824265,3.34423913 65.0441912,3.2976087 C63.15975,2.7225 60.8476765,2.38173913 58.34025,2.38173913 C52.0305882,2.38173913 48.1032794,4.32467391 46.9121029,7.20141304 C46.3391471,8.58 45.9901324,9.69076087 45.8233676,10.583913 C45.5208088,11.4663043 45.279,12.5125 45.1205735,13.6758696 C44.8835294,15.455 44.874,17.3321739 45.0693529,18.8171739 C45.0324265,19.1866304 45.0086029,19.5596739 44.9907353,19.9386957 C44.81325,19.8729348 44.6369559,19.8502174 44.4642353,19.8777174 C43.3612059,20.0546739 42.7894412,22.1901087 43.1801471,24.6411957 C43.5708529,27.0934783 44.7858529,28.9383696 45.8841176,28.761413 C46.0139559,28.7422826 46.1342647,28.6908696 46.251,28.6167391 C47.4421765,32.2120652 49.3968971,35.4451087 51.8114118,37.6211957 C49.2849265,42.4970652 44.7810882,41.03 41.4076765,42.3332609 L41.4076765,42.3332609 Z" id="Fill-2" sketch:type="MSShapeGroup"></path>
            </g>
        </g>
    </g>
</svg>