<svg width="100" height="100" viewBox="0 0 100 100" xmlns="http://www.w3.org/2000/svg" xmlns:sketch="http://www.bohemiancoding.com/sketch/ns"><title>icon-hiddenobject</title><desc>Created with Sketch.</desc><g sketch:type="MSLayerGroup" fill="#fff"><path d="M63.27 31.334c-4.002-1.189-8.257-1.927-12.674-1.927-19.547 0-35.995 14.383-40.862 19.095-.843.818-.839 2.139 0 2.953 2.879 2.787 9.807 8.957 19.034 13.534l34.501-33.656" sketch:type="MSShapeGroup"/><path d="M91.458 48.507c-2.957-2.864-10.188-9.286-19.782-13.893l7.662-7.478h-6.632l-48.253 47.071h6.637l5.994-5.851c4.242 1.343 8.785 2.195 13.513 2.195 19.542 0 35.995-14.378 40.862-19.095.843-.814.843-2.135 0-2.949zm-26.72 4.457c-1.153 5.377-5.57 9.686-11.084 10.811-3.77.763-7.326.064-10.249-1.585l6.183-6.031c.328.051.663.089 1.009.089 3.548 0 6.426-2.808 6.426-6.268 0-.336-.039-.664-.092-.984l6.186-6.034c1.687 2.855 2.408 6.324 1.621 10.001z" sketch:type="MSShapeGroup"/></g></svg>