<?xml version="1.0" encoding="UTF-8" standalone="no"?>
<svg width="100px" height="100px" viewBox="0 0 100 100" version="1.1" xmlns="http://www.w3.org/2000/svg" xmlns:xlink="http://www.w3.org/1999/xlink" xmlns:sketch="http://www.bohemiancoding.com/sketch/ns">
    <!-- Generator: Sketch 3.5.1 (25234) - http://www.bohemiancoding.com/sketch -->
    <title>icon-match3</title>
    <desc>Created with Sketch.</desc>
    <defs></defs>
    <g id="Page-1" stroke="none" stroke-width="1" fill="none" fill-rule="evenodd" sketch:type="MSPage">
        <g id="icon-match3" sketch:type="MSArtboardGroup" fill="#000000">
            <g id="Page-1" sketch:type="MSLayerGroup" transform="translate(13.362069, 16.923077)">
                <path d="M44.2608753,8.60935013 C44.2608753,12.8187666 40.8473475,16.2356764 36.637931,16.2356764 C32.4285146,16.2356764 29.0149867,12.8187666 29.0149867,8.60935013 C29.0149867,4.39880637 32.4285146,0.986405836 36.637931,0.986405836 C40.8473475,0.986405836 44.2608753,4.39880637 44.2608753,8.60935013" id="Fill-1" sketch:type="MSShapeGroup"></path>
                <path d="M16.0823607,57.4144562 C16.0823607,61.6238727 12.6688329,65.0407825 8.45941645,65.0407825 C4.25,65.0407825 0.836472149,61.6238727 0.836472149,57.4144562 C0.836472149,53.2039125 4.25,49.7915119 8.45941645,49.7915119 C12.6688329,49.7915119 16.0823607,53.2039125 16.0823607,57.4144562" id="Fill-2" sketch:type="MSShapeGroup"></path>
                <path d="M72.4393899,57.4144562 C72.4393899,61.6238727 69.0258621,65.0407825 64.8164456,65.0407825 C60.6070292,65.0407825 57.1935013,61.6238727 57.1935013,57.4144562 C57.1935013,53.2039125 60.6070292,49.7915119 64.8164456,49.7915119 C69.0258621,49.7915119 72.4393899,53.2039125 72.4393899,57.4144562" id="Fill-3" sketch:type="MSShapeGroup"></path>
            </g>
        </g>
    </g>
</svg>