<svg width="100" height="100" viewBox="0 0 100 100" xmlns="http://www.w3.org/2000/svg" xmlns:sketch="http://www.bohemiancoding.com/sketch/ns"><title>icon-driving</title><desc>Created with Sketch.</desc><g sketch:type="MSLayerGroup" fill="#fff"><path d="M56.121 50.477c0 3.105-2.516 5.625-5.625 5.625-3.105 0-5.625-2.52-5.625-5.625 0-3.11 2.52-5.629 5.625-5.629 3.109 0 5.625 2.519 5.625 5.629" sketch:type="MSShapeGroup"/><path d="M56.121 50.477c0 3.105-2.516 5.625-5.625 5.625-3.105 0-5.625-2.52-5.625-5.625 0-3.11 2.52-5.625 5.625-5.625 3.109 0 5.625 2.515 5.625 5.625" sketch:type="MSShapeGroup"/><path d="M50.496 16.75c-18.637 0-33.746 15.109-33.746 33.746 0 .66.062 1.305.098 1.953 1.019 17.723 15.672 31.793 33.648 31.793 17.981 0 32.633-14.07 33.649-31.793.035-.648.097-1.293.097-1.953 0-18.637-15.105-33.746-33.746-33.746zm-25.684 22.344l.137-.309.336-.707.156-.312.371-.711.071-.129c.277-.504.57-.996.879-1.481l.129-.203.429-.637.219-.312.438-.605.23-.301c.504-.657 1.039-1.293 1.598-1.903l.285-.308.48-.496.332-.332.489-.465.367-.332c.269-.242.543-.481.824-.711l.465-.383.48-.371.453-.34.489-.348.492-.332.477-.316.652-.402.613-.36.692-.383.46-.234.614-.301.469-.218.671-.293.422-.18c.352-.141.707-.277 1.071-.406l.351-.118c.266-.089.527-.179.797-.257l.453-.133.738-.203.45-.114c.293-.07.586-.136.882-.195l.309-.066c.391-.078.785-.145 1.184-.203l.386-.051.852-.106.461-.043.836-.062.429-.024c.387-.015.778-.027 1.172-.027h.164c.395 0 .786.012 1.172.027l.43.024c.281.016.559.035.84.062l.457.043.855.106.383.051c.399.058.793.128 1.184.203l.316.066.875.195.445.114.747.203.445.129c.277.086.551.176.82.269l.328.11c.364.129.719.265 1.075.406l.414.176.683.297.461.214.629.309.445.227c.258.136.508.277.762.421l.543.321.664.406.457.301.516.351.465.332.492.368.445.343c.274.215.543.438.809.664l.449.399.418.379.457.433.375.371.449.461.336.368c.285.312.566.632.84.96l.258.305.425.543.282.367.406.563.254.367.398.59.176.281c.258.406.504.82.742 1.242l.184.324.336.645.195.387.313.652.168.379.293.68c-.137.406-.352.82-.676 1.226-.93 1.239-2.688 1.977-4.613 1.422-1.348-.531-2.727-1.004-4.122-1.433l-.14-.043c-.496-.153-.992-.293-1.492-.43l-.622-.164c-.8-.211-1.605-.403-2.417-.578l-.809-.176c-.398-.078-.797-.152-1.199-.223-.371-.066-.742-.129-1.117-.187-.368-.059-.731-.117-1.098-.164-.688-.094-1.379-.18-2.07-.25l-.77-.067c-.555-.047-1.105-.086-1.664-.121l-.816-.043c-.754-.031-1.508-.051-2.27-.054l-.09-.004h-.039l-.09.004c-.761 0-1.515.023-2.269.054l-.817.043c-.558.031-1.113.071-1.664.121l-.769.067c-.696.07-1.387.152-2.071.25l-1.097.164c-.375.058-.746.121-1.117.187-.403.071-.801.141-1.2.223l-.808.176c-.813.175-1.621.367-2.422.578l-.621.164c-.5.137-1 .281-1.492.43l-.141.043c-1.395.429-2.773.898-4.121 1.433-1.926.555-3.684-.183-4.613-1.422-.313-.39-.52-.785-.657-1.176l.328-.761zm20.09 33.203c0 2.656-2.64 5.176-5.933 3.855l-.059-.023c-6.215-2.82-11.23-7.832-14.051-14.047l-.031-.105c-1.308-3.34 1.375-5.864 3.879-5.864.66.051 3.207 0 4.594 0 1.387 0 2.394.867 2.804 1.762 2.083 3.75 4.118 5.508 6.969 7.031 1.903.942 1.821 2.864 1.821 2.864s.007 2.867.007 4.527zm-2.843-21.82c0-4.661 3.777-8.438 8.437-8.438 4.66 0 8.438 3.777 8.438 8.438 0 4.66-3.778 8.437-8.438 8.437s-8.437-3.777-8.437-8.437zm34.23 11.257c-2.812 6.434-7.965 11.618-14.375 14.473-3.215 1.176-5.773-1.293-5.773-3.91v-4.527s-.086-1.926 1.82-2.864c2.855-1.523 4.887-3.281 6.969-7.031.41-.891 1.418-1.762 2.804-1.762 1.387 0 3.938.051 4.598 0 2.441.004 5.043 2.403 3.957 5.621z" sketch:type="MSShapeGroup"/></g></svg>