<?xml version="1.0" encoding="UTF-8" standalone="no"?>
<svg width="100px" height="100px" viewBox="0 0 100 100" version="1.1" xmlns="http://www.w3.org/2000/svg" xmlns:xlink="http://www.w3.org/1999/xlink" xmlns:sketch="http://www.bohemiancoding.com/sketch/ns">
    <!-- Generator: Sketch 3.5.1 (25234) - http://www.bohemiancoding.com/sketch -->
    <title>icon-hiddenobject</title>
    <desc>Created with Sketch.</desc>
    <defs></defs>
    <g id="Page-1" stroke="none" stroke-width="1" fill="none" fill-rule="evenodd" sketch:type="MSPage">
        <g id="icon-hiddenobject" sketch:type="MSArtboardGroup" fill="#000000">
            <g id="Page-1" sketch:type="MSLayerGroup" transform="translate(8.000000, 27.000000)">
                <path d="M55.2701316,4.33418182 C51.2684211,3.14509091 47.0128289,2.40763636 42.5961842,2.40763636 C23.0495395,2.40763636 6.60092105,16.7901818 1.73467105,21.5029091 C0.891381579,22.3210909 0.895855263,23.6421818 1.73467105,24.456 C4.61348684,27.2432727 11.5421053,33.4134545 20.7690789,37.9898182 L55.2701316,4.33418182" id="Fill-1" sketch:type="MSShapeGroup"></path>
                <path d="M83.4576974,21.5072727 C80.5005921,18.6436364 73.27,12.2214545 63.6761842,7.61454545 L71.3384868,0.136363636 L64.70625,0.136363636 L16.4530921,47.2069091 L23.0898026,47.2069091 L29.0834211,41.3563636 C33.3255921,42.6992727 37.8686184,43.5512727 42.5961842,43.5512727 C62.1383553,43.5512727 78.5914474,29.1730909 83.4576974,24.456 C84.3009868,23.6421818 84.3009868,22.3210909 83.4576974,21.5072727 L83.4576974,21.5072727 Z M56.7375,25.9647273 C55.5844079,31.3418182 51.1677632,35.6509091 45.6539474,36.7756364 C41.88375,37.5381818 38.3282895,36.84 35.4047368,35.1905455 L41.5873684,29.16 C41.9150658,29.2112727 42.2505921,29.2494545 42.5961842,29.2494545 C46.1438158,29.2494545 49.0226316,26.4414545 49.0226316,22.9810909 C49.0226316,22.6450909 48.9834868,22.3167273 48.9309211,21.9970909 L55.1169079,15.9632727 C56.8034868,18.8181818 57.5248684,22.2872727 56.7375,25.9647273 L56.7375,25.9647273 Z" id="Fill-2" sketch:type="MSShapeGroup"></path>
            </g>
        </g>
    </g>
</svg>