<svg width="100" height="100" viewBox="0 0 100 100" xmlns="http://www.w3.org/2000/svg" xmlns:sketch="http://www.bohemiancoding.com/sketch/ns"><title>icon-match3</title><desc>Created with Sketch.</desc><g sketch:type="MSLayerGroup" fill="#fff"><path d="M57.623 25.532c0 4.209-3.414 7.626-7.623 7.626s-7.623-3.417-7.623-7.626c0-4.211 3.414-7.623 7.623-7.623s7.623 3.412 7.623 7.623" sketch:type="MSShapeGroup"/><path d="M29.444 74.338c0 4.209-3.414 7.626-7.623 7.626s-7.623-3.417-7.623-7.626c0-4.211 3.414-7.623 7.623-7.623s7.623 3.412 7.623 7.623" sketch:type="MSShapeGroup"/><path d="M85.801 74.338c0 4.209-3.414 7.626-7.623 7.626s-7.623-3.417-7.623-7.626c0-4.211 3.414-7.623 7.623-7.623s7.623 3.412 7.623 7.623" sketch:type="MSShapeGroup"/></g></svg>