<?xml version="1.0" encoding="UTF-8" standalone="no"?>
<svg width="100px" height="100px" viewBox="0 0 100 100" version="1.1" xmlns="http://www.w3.org/2000/svg" xmlns:xlink="http://www.w3.org/1999/xlink" xmlns:sketch="http://www.bohemiancoding.com/sketch/ns">
    <!-- Generator: Sketch 3.5.1 (25234) - http://www.bohemiancoding.com/sketch -->
    <title>icon-driving</title>
    <desc>Created with Sketch.</desc>
    <defs></defs>
    <g id="Page-1" stroke="none" stroke-width="1" fill="none" fill-rule="evenodd" sketch:type="MSPage">
        <g id="icon-driving" sketch:type="MSArtboardGroup" fill="#000000">
            <g id="Page-1" sketch:type="MSLayerGroup" transform="translate(16.000000, 16.000000)">
                <path d="M40.121,34.477 C40.121,37.582 37.605,40.102 34.496,40.102 C31.391,40.102 28.871,37.582 28.871,34.477 C28.871,31.367 31.391,28.848 34.496,28.848 C37.605,28.848 40.121,31.367 40.121,34.477" id="Fill-1" sketch:type="MSShapeGroup"></path>
                <path d="M40.121,34.477 C40.121,37.582 37.605,40.102 34.496,40.102 C31.391,40.102 28.871,37.582 28.871,34.477 C28.871,31.367 31.391,28.852 34.496,28.852 C37.605,28.852 40.121,31.367 40.121,34.477" id="Fill-2" sketch:type="MSShapeGroup"></path>
                <path d="M34.496,0.75 C15.859,0.75 0.75,15.859 0.75,34.496 C0.75,35.156 0.812,35.801 0.848,36.449 C1.867,54.172 16.52,68.242 34.496,68.242 C52.477,68.242 67.129,54.172 68.145,36.449 C68.18,35.801 68.242,35.156 68.242,34.496 C68.242,15.859 53.137,0.75 34.496,0.75 L34.496,0.75 Z M8.812,23.094 C8.859,22.992 8.902,22.887 8.949,22.785 C9.059,22.547 9.172,22.312 9.285,22.078 C9.336,21.973 9.391,21.871 9.441,21.766 C9.562,21.527 9.684,21.289 9.812,21.055 C9.836,21.012 9.859,20.969 9.883,20.926 C10.16,20.422 10.453,19.93 10.762,19.445 C10.805,19.379 10.848,19.309 10.891,19.242 C11.031,19.027 11.176,18.816 11.32,18.605 C11.391,18.5 11.465,18.395 11.539,18.293 C11.684,18.09 11.828,17.887 11.977,17.688 C12.051,17.586 12.129,17.488 12.207,17.387 C12.711,16.73 13.246,16.094 13.805,15.484 C13.898,15.383 13.992,15.277 14.09,15.176 C14.25,15.008 14.41,14.844 14.57,14.68 C14.68,14.566 14.793,14.457 14.902,14.348 C15.062,14.191 15.227,14.035 15.391,13.883 C15.512,13.77 15.637,13.66 15.758,13.551 C16.027,13.309 16.301,13.07 16.582,12.84 C16.738,12.711 16.891,12.582 17.047,12.457 C17.207,12.332 17.367,12.207 17.527,12.086 C17.68,11.973 17.828,11.855 17.98,11.746 C18.141,11.629 18.305,11.512 18.469,11.398 C18.633,11.285 18.797,11.176 18.961,11.066 C19.121,10.961 19.277,10.855 19.438,10.75 C19.652,10.613 19.871,10.48 20.09,10.348 C20.293,10.227 20.496,10.105 20.703,9.988 C20.934,9.859 21.16,9.73 21.395,9.605 C21.547,9.523 21.703,9.445 21.855,9.371 C22.059,9.27 22.262,9.168 22.469,9.07 C22.625,8.996 22.781,8.922 22.938,8.852 C23.16,8.75 23.387,8.652 23.609,8.559 C23.75,8.5 23.891,8.438 24.031,8.379 C24.383,8.238 24.738,8.102 25.102,7.973 C25.219,7.93 25.336,7.895 25.453,7.855 C25.719,7.766 25.98,7.676 26.25,7.598 C26.402,7.551 26.551,7.508 26.703,7.465 C26.949,7.395 27.195,7.324 27.441,7.262 C27.59,7.223 27.742,7.184 27.891,7.148 C28.184,7.078 28.477,7.012 28.773,6.953 C28.875,6.93 28.98,6.906 29.082,6.887 C29.473,6.809 29.867,6.742 30.266,6.684 C30.395,6.664 30.523,6.648 30.652,6.633 C30.934,6.594 31.219,6.559 31.504,6.527 C31.656,6.512 31.809,6.496 31.965,6.484 C32.242,6.461 32.523,6.438 32.801,6.422 C32.941,6.414 33.086,6.402 33.23,6.398 C33.617,6.383 34.008,6.371 34.402,6.371 L34.484,6.371 L34.566,6.371 C34.961,6.371 35.352,6.383 35.738,6.398 C35.883,6.406 36.023,6.414 36.168,6.422 C36.449,6.438 36.727,6.457 37.008,6.484 C37.16,6.496 37.312,6.512 37.465,6.527 C37.75,6.559 38.035,6.594 38.32,6.633 C38.449,6.648 38.578,6.664 38.703,6.684 C39.102,6.742 39.496,6.812 39.887,6.887 C39.992,6.906 40.098,6.934 40.203,6.953 C40.496,7.016 40.789,7.078 41.078,7.148 C41.227,7.184 41.375,7.223 41.523,7.262 C41.773,7.328 42.023,7.395 42.27,7.465 C42.418,7.508 42.566,7.551 42.715,7.594 C42.992,7.68 43.266,7.77 43.535,7.863 C43.645,7.902 43.754,7.934 43.863,7.973 C44.227,8.102 44.582,8.238 44.938,8.379 C45.078,8.434 45.211,8.496 45.352,8.555 C45.582,8.652 45.809,8.75 46.035,8.852 C46.191,8.922 46.344,8.992 46.496,9.066 C46.707,9.168 46.918,9.27 47.125,9.375 C47.273,9.449 47.422,9.523 47.57,9.602 C47.828,9.738 48.078,9.879 48.332,10.023 C48.516,10.129 48.695,10.234 48.875,10.344 C49.098,10.477 49.32,10.613 49.539,10.75 C49.695,10.848 49.844,10.949 49.996,11.051 C50.172,11.168 50.344,11.285 50.512,11.402 C50.668,11.512 50.824,11.621 50.977,11.734 C51.141,11.855 51.305,11.977 51.469,12.102 C51.617,12.215 51.77,12.328 51.914,12.445 C52.188,12.66 52.457,12.883 52.723,13.109 C52.875,13.238 53.023,13.375 53.172,13.508 C53.312,13.633 53.453,13.758 53.59,13.887 C53.742,14.027 53.895,14.176 54.047,14.32 C54.172,14.441 54.297,14.566 54.422,14.691 C54.574,14.844 54.723,14.996 54.871,15.152 C54.984,15.273 55.098,15.395 55.207,15.52 C55.492,15.832 55.773,16.152 56.047,16.48 C56.133,16.582 56.219,16.684 56.305,16.785 C56.449,16.965 56.59,17.148 56.73,17.328 C56.824,17.449 56.918,17.57 57.012,17.695 C57.148,17.879 57.285,18.066 57.418,18.258 C57.504,18.379 57.59,18.504 57.672,18.625 C57.805,18.82 57.941,19.016 58.07,19.215 C58.133,19.309 58.188,19.402 58.246,19.496 C58.504,19.902 58.75,20.316 58.988,20.738 C59.051,20.848 59.109,20.953 59.172,21.062 C59.289,21.273 59.398,21.488 59.508,21.707 C59.574,21.836 59.641,21.965 59.703,22.094 C59.809,22.309 59.914,22.527 60.016,22.746 C60.074,22.871 60.129,22.996 60.184,23.125 C60.285,23.352 60.383,23.574 60.477,23.805 C60.34,24.211 60.125,24.625 59.801,25.031 C58.871,26.27 57.113,27.008 55.188,26.453 C53.84,25.922 52.461,25.449 51.066,25.02 C51.02,25.004 50.973,24.988 50.926,24.977 C50.43,24.824 49.934,24.684 49.434,24.547 C49.227,24.488 49.02,24.438 48.812,24.383 C48.012,24.172 47.207,23.98 46.395,23.805 C46.125,23.746 45.859,23.684 45.586,23.629 C45.188,23.551 44.789,23.477 44.387,23.406 C44.016,23.34 43.645,23.277 43.27,23.219 C42.902,23.16 42.539,23.102 42.172,23.055 C41.484,22.961 40.793,22.875 40.102,22.805 C39.848,22.777 39.586,22.762 39.332,22.738 C38.777,22.691 38.227,22.652 37.668,22.617 C37.395,22.602 37.125,22.586 36.852,22.574 C36.098,22.543 35.344,22.523 34.582,22.52 C34.551,22.52 34.523,22.516 34.492,22.516 L34.473,22.516 L34.453,22.516 C34.422,22.516 34.395,22.52 34.363,22.52 C33.602,22.52 32.848,22.543 32.094,22.574 C31.82,22.586 31.551,22.602 31.277,22.617 C30.719,22.648 30.164,22.688 29.613,22.738 C29.355,22.762 29.098,22.777 28.844,22.805 C28.148,22.875 27.457,22.957 26.773,23.055 C26.406,23.105 26.039,23.164 25.676,23.219 C25.301,23.277 24.93,23.34 24.559,23.406 C24.156,23.477 23.758,23.547 23.359,23.629 C23.09,23.684 22.82,23.746 22.551,23.805 C21.738,23.98 20.93,24.172 20.129,24.383 C19.922,24.438 19.715,24.492 19.508,24.547 C19.008,24.684 18.508,24.828 18.016,24.977 C17.969,24.992 17.922,25.008 17.875,25.02 C16.48,25.449 15.102,25.918 13.754,26.453 C11.828,27.008 10.07,26.27 9.141,25.031 C8.828,24.641 8.621,24.246 8.484,23.855 C8.594,23.586 8.703,23.34 8.812,23.094 L8.812,23.094 Z M28.902,56.297 C28.902,58.953 26.262,61.473 22.969,60.152 C22.949,60.145 22.93,60.137 22.91,60.129 C16.695,57.309 11.68,52.297 8.859,46.082 C8.852,46.047 8.84,46.012 8.828,45.977 C7.52,42.637 10.203,40.113 12.707,40.113 C13.367,40.164 15.914,40.113 17.301,40.113 C18.688,40.113 19.695,40.98 20.105,41.875 C22.188,45.625 24.223,47.383 27.074,48.906 C28.977,49.848 28.895,51.77 28.895,51.77 C28.895,51.77 28.902,54.637 28.902,56.297 L28.902,56.297 Z M26.059,34.477 C26.059,29.816 29.836,26.039 34.496,26.039 C39.156,26.039 42.934,29.816 42.934,34.477 C42.934,39.137 39.156,42.914 34.496,42.914 C29.836,42.914 26.059,39.137 26.059,34.477 L26.059,34.477 Z M60.289,45.734 C57.477,52.168 52.324,57.352 45.914,60.207 C42.699,61.383 40.141,58.914 40.141,56.297 L40.141,51.77 C40.141,51.77 40.055,49.844 41.961,48.906 C44.816,47.383 46.848,45.625 48.93,41.875 C49.34,40.984 50.348,40.113 51.734,40.113 C53.121,40.113 55.672,40.164 56.332,40.113 C58.773,40.117 61.375,42.516 60.289,45.734 L60.289,45.734 Z" id="Fill-3" sketch:type="MSShapeGroup"></path>
            </g>
        </g>
    </g>
</svg>