<?xml version="1.0" encoding="UTF-8" standalone="no"?>
<svg width="100px" height="100px" viewBox="0 0 100 100" version="1.1" xmlns="http://www.w3.org/2000/svg" xmlns:xlink="http://www.w3.org/1999/xlink" xmlns:sketch="http://www.bohemiancoding.com/sketch/ns">
    <!-- Generator: Sketch 3.5.1 (25234) - http://www.bohemiancoding.com/sketch -->
    <title>icon-rpg</title>
    <desc>Created with Sketch.</desc>
    <defs></defs>
    <g id="Page-1" stroke="none" stroke-width="1" fill="none" fill-rule="evenodd" sketch:type="MSPage">
        <g id="icon-rpg" sketch:type="MSArtboardGroup" fill="#000000">
            <g id="Page-1" sketch:type="MSLayerGroup" transform="translate(18.000000, 17.000000)">
                <path d="M49.0954667,46.1578667 L59.7792,56.8416 L56.5333333,60.0874667 L45.8496,49.4037333 L49.0954667,46.1578667 Z" id="Fill-1" sketch:type="MSShapeGroup"></path>
                <path d="M60.1088,57.1456 L56.8330667,60.4213333 C56.1504,61.104 56.2293333,62.2912 57.008,63.0752 C57.792,63.8538667 58.9792,63.9338667 59.6629333,63.2501333 L62.9376,59.9754667 C63.6213333,59.2917333 63.5413333,58.1045333 62.7626667,57.3205333 C61.9786667,56.5418667 60.7914667,56.4629333 60.1088,57.1456 L60.1088,57.1456 Z" id="Fill-2" sketch:type="MSShapeGroup"></path>
                <path d="M41.5786667,52.7872 L52.4746667,41.8912 L52.7253333,42.1418667 C53.312,42.7296 54.1578667,42.8245333 54.6208,42.3626667 C55.0837333,41.8997333 54.9834667,41.0496 54.4,40.4672 L51.4912,37.5541333 C50.9045333,36.9706667 50.0586667,36.8704 49.5957333,37.3333333 C49.1328,37.7962667 49.2330667,38.6421333 49.8165333,39.2288 L50.0672,39.4794667 L39.1712,50.3786667 L38.9205333,50.1290667 C38.3370667,49.5413333 37.488,49.4453333 37.0250667,49.9082667 C36.5621333,50.3712 36.6624,51.2213333 37.2458667,51.8037333 L40.1546667,54.7125333 C40.7370667,55.296 41.5872,55.3962667 42.0501333,54.9333333 C42.512,54.4704 42.4128,53.6213333 41.8293333,53.0378667 L41.5786667,52.7872 Z" id="Fill-3" sketch:type="MSShapeGroup"></path>
                <path d="M6.98346667,60.096 L3.7376,56.8501333 L14.4213333,46.1664 L17.6661333,49.4122667 L6.98346667,60.096 Z" id="Fill-4" sketch:type="MSShapeGroup"></path>
                <path d="M3.41226667,57.1456 C2.7296,56.4629333 1.54133333,56.5418667 0.7584,57.3205333 C-0.0213333333,58.1002667 -0.100266667,59.2917333 0.583466667,59.9754667 L3.85813333,63.2501333 C4.54186667,63.9338667 5.72906667,63.8538667 6.512,63.0752 C7.29173333,62.2912 7.37066667,61.104 6.688,60.4213333 L3.41226667,57.1456 Z" id="Fill-5" sketch:type="MSShapeGroup"></path>
                <path d="M24.5994667,50.1290667 L24.3498667,50.3786667 L13.4538667,39.4837333 L13.7045333,39.2330667 C14.288,38.6453333 14.3872,37.8005333 13.9253333,37.3376 C13.4624,36.8746667 12.6122667,36.9706667 12.0288,37.5584 L9.12106667,40.4704 C8.5376,41.0538667 8.43733333,41.904 8.90026667,42.3669333 C9.36213333,42.8288 10.2122667,42.7296 10.7957333,42.1461333 L11.0453333,41.8954667 L21.9413333,52.7914667 L21.6917333,53.0421333 C21.1082667,53.6288 21.008,54.4746667 21.4709333,54.9376 C21.9328,55.4005333 22.7829333,55.3002667 23.3664,54.7168 L26.2752,51.808 C26.8629333,51.2213333 26.9578667,50.3754667 26.496,49.9125333 C26.0330667,49.4421333 25.1829333,49.5413333 24.5994667,50.1290667 L24.5994667,50.1290667 Z" id="Fill-6" sketch:type="MSShapeGroup"></path>
                <path d="M47.4709333,41.3461333 L38.1994667,32.0704 L59.6501333,10.6208 L63.408,0.2912 L53.2085333,4.17493333 L31.7578667,25.6288 L10.2752,4.14613333 L0.0704,0.253866667 L3.8336,10.5877333 L25.3162667,32.0704 L16.0458667,41.3461333 L22.4874667,47.7877333 L31.7578667,38.5162667 L41.0293333,47.7877333 L47.4709333,41.3461333 Z M9.9296,11.1082667 C9.59573333,10.7754667 9.52106667,10.3125333 9.75786667,10.0746667 C9.99573333,9.83786667 10.4586667,9.91253333 10.7914667,10.2453333 L28.9706667,28.4245333 L28.1045333,29.2874667 L9.9296,11.1082667 Z M31.7578667,32.9376 L23.4709333,41.2245333 C23.1370667,41.5584 22.6752,41.6330667 22.4373333,41.3962667 C22.1994667,41.1584 22.2752,40.6954667 22.608,40.3626667 L52.6954667,10.2752 C53.0293333,9.94133333 53.4912,9.86666667 53.7290667,10.1045333 C53.9669333,10.3413333 53.8912,10.8042667 53.5584,11.1370667 L31.7578667,32.9376 Z M40.0416,41.2213333 L34.5461333,35.7248 L35.408,34.8629333 L40.9045333,40.3584 C41.2373333,40.6912 41.312,41.1541333 41.0752,41.392 C40.8330667,41.6288 40.3754667,41.5541333 40.0416,41.2213333 L40.0416,41.2213333 Z" id="Fill-7" sketch:type="MSShapeGroup"></path>
            </g>
        </g>
    </g>
</svg>